<svg xmlns="http://www.w3.org/2000/svg" width="1200" height="720" viewBox="0 0 1200 720" role="img" aria-labelledby="title desc">
  <title id="title">Localizar o Tenancy OCID</title><desc id="desc">Tela ilustrativa do menu Profile e da página Tenancy details com botão Copy.</desc>
  <defs><style>.t{font:14px Arial;fill:#211f1d}.s{font:12px Arial;fill:#6b6661}.h{font:bold 28px Arial;fill:#211f1d}.h2{font:bold 17px Arial;fill:#211f1d}.bold{font-weight:bold}.call{font:13px Arial;fill:#fff}.mono{font:13px Consolas,monospace;fill:#312d2a}</style></defs>
  <rect width="1200" height="720" fill="#f4f4f4"/><rect width="1200" height="54" fill="#fff"/><text x="25" y="34" font-family="Arial" font-size="22" font-weight="bold" fill="#c74634">ORACLE</text><text x="139" y="33" class="h2">Cloud Infrastructure</text><rect x="790" y="12" width="190" height="31" rx="3" fill="#f3f2f1"/><text x="810" y="32" class="s">US Midwest (Chicago)</text><circle cx="1122" cy="27" r="17" fill="#312d2a"/><text x="1116" y="32" font-family="Arial" font-size="12" fill="#fff">RD</text>
  <rect x="870" y="54" width="300" height="168" rx="4" fill="#fff" stroke="#c1bdb8"/><text x="895" y="88" class="t bold">Profile</text><line x1="890" y1="101" x2="1145" y2="101" stroke="#e1ded9"/><text x="895" y="133" class="t">User settings</text><rect x="888" y="147" width="265" height="48" fill="#fbeeea"/><text x="905" y="177" class="t bold">Tenancy: trial-workshop</text><circle cx="855" cy="172" r="17" fill="#312d2a"/><text x="850" y="178" font-family="Arial" font-weight="bold" fill="#fff">1</text>
  <text x="50" y="285" class="h">Tenancy details</text><text x="50" y="319" class="s">Governance &amp; Administration / Tenancy Management</text>
  <rect x="50" y="350" width="1100" height="214" rx="5" fill="#fff" stroke="#d8d4cf"/><text x="78" y="390" class="h2">Tenancy information</text><text x="78" y="435" class="s bold">TENANCY OCID</text><rect x="78" y="450" width="825" height="48" rx="3" fill="#f7f7f7" stroke="#c1bdb8"/><text x="95" y="480" class="mono">ocid1.tenancy.oc1..EXEMPLO</text><rect x="925" y="450" width="145" height="48" rx="3" fill="#fff" stroke="#8b8580"/><text x="970" y="480" class="t bold">Copy</text><circle cx="1080" cy="450" r="17" fill="#312d2a"/><text x="1075" y="456" font-family="Arial" font-weight="bold" fill="#fff">2</text><text x="78" y="535" class="s">Cole este valor em tenancy_ocid na Stack.</text>
  <rect x="50" y="626" width="1100" height="58" rx="4" fill="#312d2a"/><text x="72" y="651" class="call"><tspan font-weight="bold" fill="#f8cf75">Caminho:</tspan> Profile → Tenancy: &lt;nome&gt; → Tenancy information → Copy.</text><text x="1010" y="675" class="s">Tela ilustrativa</text>
</svg>
