<svg xmlns="http://www.w3.org/2000/svg" width="1200" height="720" viewBox="0 0 1200 720" role="img" aria-labelledby="title desc">
  <title id="title">Executar Plan</title><desc id="desc">Tela ilustrativa da Stack details e painel Plan.</desc>
  <defs><style>.t{font:14px Arial;fill:#211f1d}.s{font:12px Arial;fill:#6b6661}.h{font:bold 28px Arial;fill:#211f1d}.h2{font:bold 17px Arial;fill:#211f1d}.bold{font-weight:bold}.call{font:13px Arial;fill:#fff}</style></defs>
  <rect width="1200" height="720" fill="#f4f4f4"/><rect width="1200" height="54" fill="#fff"/><text x="25" y="34" font-family="Arial" font-size="22" font-weight="bold" fill="#c74634">ORACLE</text><text x="139" y="33" class="h2">Cloud Infrastructure</text><rect y="54" width="1200" height="42" fill="#fff"/><text x="25" y="80" class="s">Resource Manager / Stacks / hermes-oci-workshop</text>
  <rect x="0" y="96" width="235" height="624" fill="#fff"/><text x="20" y="130" class="s">STACK RESOURCES</text><rect x="10" y="151" width="215" height="35" fill="#fbeeea"/><text x="25" y="174" class="t bold">Stack information</text><text x="25" y="211" class="t">Jobs</text><text x="25" y="248" class="t">Variables</text><text x="25" y="285" class="t">Stack resources</text><text x="25" y="322" class="t">View state</text>
  <text x="270" y="142" class="h">hermes-oci-workshop</text><rect x="270" y="167" width="82" height="38" rx="3" fill="#c74634"/><text x="294" y="191" font-family="Arial" font-size="14" font-weight="bold" fill="#fff">Plan</text><rect x="365" y="167" width="82" height="38" rx="3" fill="#fff" stroke="#8b8580"/><text x="387" y="191" class="t bold">Apply</text><rect x="460" y="167" width="86" height="38" rx="3" fill="#fff" stroke="#8b8580"/><text x="478" y="191" class="t bold">Destroy</text>
  <rect x="270" y="227" width="260" height="76" fill="#fff" stroke="#d8d4cf"/><text x="290" y="257" class="h2" fill="#147d64">Active</text><text x="290" y="282" class="s">Stack state</text><rect x="550" y="227" width="260" height="76" fill="#fff" stroke="#d8d4cf"/><text x="570" y="257" class="h2">Terraform 1.x</text><text x="570" y="282" class="s">Version</text>
  <rect x="270" y="325" width="880" height="247" rx="4" fill="#fff" stroke="#d8d4cf"/><text x="295" y="363" class="h2">Plan</text><text x="295" y="400" class="s bold">JOB NAME</text><rect x="295" y="414" width="830" height="42" rx="3" fill="#fff" stroke="#8b8580"/><text x="310" y="440" class="t">plan-hermes-oci-workshop-01</text>
  <rect x="295" y="479" width="16" height="16" fill="#fff" stroke="#777"/><text x="325" y="492" class="t">Show advanced options</text><rect x="295" y="517" width="82" height="38" rx="3" fill="#c74634"/><text x="318" y="541" font-family="Arial" font-size="14" font-weight="bold" fill="#fff">Plan</text>
  <rect x="270" y="590" width="880" height="35" fill="#edf6fb"/><text x="290" y="612" class="t">Depois, abra Jobs → plan-... → Logs e confirme o resumo do Terraform.</text>
  <rect x="270" y="640" width="880" height="55" rx="4" fill="#312d2a"/><text x="290" y="666" class="call">Aguarde <tspan font-weight="bold" fill="#f8cf75">SUCCEEDED</tspan> e revise “Plan: X to add, 0 to change, 0 to destroy”.</text><text x="1002" y="686" class="s">Tela ilustrativa</text>
</svg>
