<svg xmlns="http://www.w3.org/2000/svg" width="1200" height="680" viewBox="0 0 1200 680">
  <style>
    .bg{fill:#f5f4f2}.top{fill:#211f1e}.nav{fill:#fff}.card{fill:#fff;stroke:#d7d3cf;stroke-width:2}.red{fill:#c74634}.teal{fill:#147d86}.h{font:700 26px Arial;fill:#211f1e}.t{font:18px Arial;fill:#312d2a}.s{font:15px Arial;fill:#625d58}.w{fill:#fff}.b{font-weight:700}.mono{font:16px Menlo,monospace;fill:#312d2a}
  </style>
  <rect width="1200" height="680" class="bg"/>
  <rect width="1200" height="68" class="top"/>
  <text x="30" y="43" font-family="Arial" font-size="22" font-weight="700" class="w">ORACLE CLOUD</text>
  <text x="870" y="41" font-family="Arial" font-size="17" class="w">Region: US Midwest (Chicago) ▾</text>
  <rect x="0" y="68" width="250" height="612" class="nav"/>
  <text x="24" y="112" class="s">Analytics &amp; AI</text>
  <text x="24" y="151" class="t b">AI Services</text>
  <text x="42" y="191" class="t">Generative AI</text>
  <rect x="18" y="215" width="214" height="46" rx="4" fill="#fbe9e6"/>
  <rect x="18" y="215" width="5" height="46" class="red"/>
  <text x="42" y="245" class="t b">API keys</text>
  <text x="290" y="116" class="h">Generative AI · API keys</text>
  <rect x="290" y="144" width="870" height="86" rx="6" class="card"/>
  <text x="315" y="178" class="s">Compartment</text>
  <rect x="315" y="188" width="480" height="30" rx="3" fill="#fff" stroke="#8b8580"/>
  <text x="330" y="209" class="t">hermes-workshop</text>
  <rect x="935" y="173" width="195" height="42" rx="4" class="red"/>
  <text x="963" y="200" class="t b w">Create API key</text>
  <rect x="290" y="254" width="870" height="282" rx="6" class="card"/>
  <text x="315" y="294" class="t b">Name</text>
  <text x="650" y="294" class="t b">State</text>
  <text x="850" y="294" class="t b">Created</text>
  <line x1="315" y1="310" x2="1130" y2="310" stroke="#d7d3cf"/>
  <text x="315" y="352" class="s">Nenhuma API key criada ainda</text>
  <rect x="290" y="560" width="870" height="76" rx="6" fill="#e8f4f5" stroke="#92c9cd"/>
  <text x="315" y="590" class="t b">Checkpoint</text>
  <text x="315" y="617" class="t">Chicago selecionada + compartment da Stack + botão Create API key.</text>
</svg>
