<svg xmlns="http://www.w3.org/2000/svg" width="1200" height="660" viewBox="0 0 1200 660">
  <style>
    .bg{fill:#f5f4f2}.top{fill:#211f1e}.card{fill:#fff;stroke:#d7d3cf;stroke-width:2}.red{fill:#c74634}.green{fill:#2e7d32}.warn{fill:#fff3e0;stroke:#e0a04b}.h{font:700 27px Arial;fill:#211f1e}.t{font:18px Arial;fill:#312d2a}.s{font:15px Arial;fill:#625d58}.w{fill:#fff}.b{font-weight:700}.mono{font:17px Menlo,monospace;fill:#312d2a}
  </style>
  <rect width="1200" height="660" class="bg"/>
  <rect width="1200" height="68" class="top"/>
  <text x="30" y="43" font-family="Arial" font-size="22" font-weight="700" class="w">ORACLE CLOUD</text>
  <text x="70" y="118" class="h">API key created</text>
  <rect x="70" y="145" width="1060" height="400" rx="8" class="card"/>
  <circle cx="110" cy="188" r="13" class="green"/>
  <text x="102" y="195" font-family="Arial" font-size="18" font-weight="700" class="w">✓</text>
  <text x="137" y="195" class="t b">hermes-workshop-key está Active</text>
  <rect x="100" y="229" width="1000" height="85" rx="5" fill="#f7f7f7" stroke="#d7d3cf"/>
  <text x="122" y="258" class="s">workshop-primary</text>
  <text x="122" y="291" class="mono">sk-••••••••••••••••••••••••••••••••</text>
  <rect x="930" y="250" width="140" height="42" rx="4" class="red"/>
  <text x="976" y="277" class="t b w">Copy</text>
  <rect x="100" y="332" width="1000" height="85" rx="5" fill="#f7f7f7" stroke="#d7d3cf"/>
  <text x="122" y="361" class="s">workshop-standby</text>
  <text x="122" y="394" class="mono">sk-••••••••••••••••••••••••••••••••</text>
  <rect x="100" y="441" width="1000" height="76" rx="5" class="warn"/>
  <text x="122" y="472" class="t b">Copie agora: o secret será mostrado somente uma vez.</text>
  <text x="122" y="498" class="s">Use o valor sk-...; não use o OCID da API key.</text>
  <text x="70" y="589" class="t b">Guardar em gerenciador de senhas → colar somente no prompt oculto da VM</text>
  <text x="70" y="623" class="s">Nunca adicionar ao Terraform, GitHub, prints ou chat.</text>
</svg>
